# xmcd
#
# Track frame offsets:
#	182
#	17905
#	46225
#	70287
#	91972
#	129752
#	155125
#	192255
#	224207
#	253082
#	280422
#	303847
#
# Disc length: 4507 seconds
# Revision: 0
# Processed by: cddbd v1.5.2PL0 Copyright (c) Steve Scherf et al.
# Submitted via: dBpowerAMP V12.0
#
DISCID=b111990c
DTITLE=Various Artist - Prelude: The Sound of New York
DYEAR=1977
DGENRE=Disco
TTITLE0=Mastermind - I Am Music (Extended Album Mix)
TTITLE1=Prana People - Pranian Man (Extended Album Mix)
TTITLE2=Sine - Mosquito Walk (Extended Album Mix)
TTITLE3=Mastermind - Hustle Bus Stop (Extended Album Mix)
TTITLE4=Peter Jacques Band - Walking On Music (Extended Album Mix)
TTITLE5=Center Stage - Never (Extended 12" Mix)
TTITLE6=Gayle Adams - Stretch' In Out (Francois Kervorkian Disco Mix)
TTITLE7=Sharon Redd - You Got My Love (Francois Kervorkian Mix)
TTITLE8=Bobby Thurston - I Know You Feel Like I Feel (Extended Album Mix)
TTITLE9=Unlimited Touch - Happy Ever After (Extended 12" Mix)
TTITLE10=Hi-Gloss - I'm Totally Yours (Extended Album Mix)
TTITLE11=Empress - Take a Risk (Francois Kervorkian Mix)
EXTD=
EXTT0=
EXTT1=
EXTT2=
EXTT3=
EXTT4=
EXTT5=
EXTT6=
EXTT7=
EXTT8=
EXTT9=
EXTT10=
EXTT11=
PLAYORDER=
